<svg viewBox="0 0 24 24" xmlns="http://www.w3.org/2000/svg" width="24" height="24">
    <rect x="4" y="5" width="16" height="16" rx="2" fill="#7F1D1D"/>
    <path d="M5 7C6.7 5.8 8.7 5.8 10.4 7C12.1 8.2 14 8.2 15.7 7C17 6.1 18.2 6 19 6.4V11H5V7Z" fill="#DC2626"/>
    <rect x="5" y="11" width="14" height="5" fill="#F8FAFC"/>
    <path d="M5 16H19V19C19 19.6 18.6 20 18 20H6C5.4 20 5 19.6 5 19V16Z" fill="#B91C1C"/>
    <path d="M7 12H9V15H7V12ZM10 12H12V15H10V12ZM13 12H15V15H13V12ZM16 12H18V15H16V12Z" fill="#111827"/>
    <path d="M14.8 4.7C15.9 3.5 17.8 3.7 18.6 5.1" stroke="#FBBF24" stroke-width="1.5" stroke-linecap="round"/>
    <path d="M18.7 4.6L20.6 3.4" stroke="#F97316" stroke-width="1.4" stroke-linecap="round"/>
    <path d="M18.9 5.2L21.2 5.4" stroke="#FDE68A" stroke-width="1.2" stroke-linecap="round"/>
</svg>
